<svg width="24" height="25" viewBox="0 0 24 25" fill="none" xmlns="http://www.w3.org/2000/svg">
<g id="outline/store 01">
<path id="Rectangle 743" d="M20 12.6514V18.6514C20 20.8605 18.2091 22.6514 16 22.6514H8C5.79086 22.6514 4 20.8605 4 18.6514V12.6514" stroke="#FEFEFE" stroke-width="1.5" stroke-linejoin="round"/>
<path id="Vector" d="M16.7687 2.65137H7.23122C5.41387 2.65137 3.7796 3.89612 3.10466 5.79441L2.34667 7.92624C2.11723 8.57156 1.95862 9.26211 2.12598 9.92624C2.52232 11.4991 3.8082 12.6514 5.3333 12.6514C7.17424 12.6514 8.66663 10.9724 8.66663 8.90137C8.66663 10.9724 10.159 12.6514 12 12.6514C13.8409 12.6514 15.3333 10.9724 15.3333 8.90137C15.3333 10.9724 16.8257 12.6514 18.6666 12.6514C20.1917 12.6514 21.4776 11.4991 21.8739 9.92624C22.0413 9.26211 21.8827 8.57156 21.6533 7.92624L20.8953 5.79441C20.2203 3.89612 18.5861 2.65137 16.7687 2.65137Z" stroke="#FEFEFE" stroke-width="1.5" stroke-linejoin="round"/>
<path id="Rectangle 744" d="M9 19.6514C9 17.9945 10.3431 16.6514 12 16.6514C13.6569 16.6514 15 17.9945 15 19.6514V22.6514H9V19.6514Z" stroke="#FEFEFE" stroke-width="1.5" stroke-linejoin="round"/>
</g>
</svg>
